<?xml version="1.0" encoding="UTF-8" standalone="no"?>
<!DOCTYPE svg PUBLIC "-//W3C//DTD SVG 20010904//EN"
              "http://www.w3.org/TR/2001/REC-SVG-20010904/DTD/svg10.dtd">

<svg xmlns="http://www.w3.org/2000/svg"
     width="44.4501mm" height="48.6834mm"
     viewBox="0 0 525 575">
  <path id="Selection"
        fill="none" stroke="black" stroke-width="1"
        d="M 242.00,261.00
           C 250.77,257.05 253.70,250.53 268.00,245.06
             270.60,244.07 277.48,242.57 278.26,239.73
             279.12,236.56 275.24,234.01 273.00,232.63
             267.32,229.14 256.65,226.67 250.00,227.09
             247.81,227.23 244.43,227.66 243.02,229.56
             241.77,231.26 242.00,234.93 242.00,237.00
             242.00,237.00 242.00,261.00 242.00,261.00 Z
           M 242.00,310.00
           C 263.17,305.73 287.72,291.22 288.00,267.00
             288.03,263.61 288.34,256.19 285.30,254.01
             282.65,252.10 274.86,254.98 272.00,256.06
             264.00,259.10 257.56,263.51 251.00,268.92
             248.42,271.05 244.53,274.03 243.02,277.00
             242.02,278.98 242.04,280.86 242.00,283.00
             242.00,283.00 242.00,310.00 242.00,310.00 Z" />
</svg>
