<?xml version="1.0" encoding="UTF-8" standalone="no"?>
<!DOCTYPE svg PUBLIC "-//W3C//DTD SVG 20010904//EN"
              "http://www.w3.org/TR/2001/REC-SVG-20010904/DTD/svg10.dtd">

<svg xmlns="http://www.w3.org/2000/svg"
     width="44.4501mm" height="48.6834mm"
     viewBox="0 0 525 575">
  <path id="Selection #3"
        fill="none" stroke="black" stroke-width="1"
        d="M 50.00,33.00
           C 47.96,26.70 41.07,25.03 35.00,25.03
             23.62,25.03 9.64,32.55 4.67,43.00
             3.21,46.07 1.33,55.57 5.31,57.39
             8.64,58.91 15.09,55.80 18.00,54.12
             22.00,51.82 23.70,50.09 27.00,47.02
             35.77,38.86 38.81,36.74 50.00,33.00 Z
           M 8.00,65.00
           C 11.06,74.07 24.34,73.67 32.00,71.98
             43.07,69.55 54.47,60.94 55.81,49.00
             56.17,45.79 55.56,43.12 55.00,40.00
             33.30,41.83 31.29,59.68 8.00,65.00 Z" />
</svg>
