<svg id="Layer_1" data-name="Layer 1" xmlns="http://www.w3.org/2000/svg" xmlns:xlink="http://www.w3.org/1999/xlink" viewBox="0 0 1254.95 415.9"><defs><style>.cls-1,.cls-5,.cls-7,.cls-8{fill:none;}.cls-2,.cls-4{fill:#fff;}.cls-3{fill:#0a0a0a;}.cls-4,.cls-7{stroke:#0a0a0a;}.cls-4{stroke-linecap:round;}.cls-4,.cls-7,.cls-8{stroke-linejoin:round;stroke-width:2px;}.cls-5,.cls-8{stroke:#000;}.cls-5{stroke-miterlimit:10;}.cls-6{clip-path:url(#clip-path);}</style><clipPath id="clip-path" transform="translate(0 -141.62)"><rect class="cls-1" x="945.31" y="371.24" width="64.14" height="64.14"/></clipPath></defs><title>compile_to_WebAssembly-03_export</title><rect class="cls-2" width="1254.95" height="415.9"/><path class="cls-3" d="M660.57,248.68a4.57,4.57,0,0,1-1,1.75,4.63,4.63,0,0,1-1.82,1.23,7.29,7.29,0,0,1-2.81.47,6,6,0,0,1-4.32-1.47,5.79,5.79,0,0,1-1.51-4.33V245.1h2.66v.84a8.47,8.47,0,0,0,.14,1.59,3.35,3.35,0,0,0,.49,1.26,2.37,2.37,0,0,0,1,.83,3.87,3.87,0,0,0,1.61.29,2.84,2.84,0,0,0,2.51-1,4.51,4.51,0,0,0,.68-2.63V231.69h2.66v15A6.66,6.66,0,0,1,660.57,248.68Z" transform="translate(0 -141.62)"/><path class="cls-3" d="M677.94,251.62a3.33,3.33,0,0,1-1.7.37,2,2,0,0,1-1.47-.52,2.24,2.24,0,0,1-.55-1.7,5.64,5.64,0,0,1-2.28,1.7,7.58,7.58,0,0,1-2.82.52,7.29,7.29,0,0,1-1.86-.23,4.22,4.22,0,0,1-1.52-.7,3.45,3.45,0,0,1-1-1.24,4.31,4.31,0,0,1-.37-1.87,4.19,4.19,0,0,1,.42-2,3.76,3.76,0,0,1,1.1-1.28,5.38,5.38,0,0,1,1.57-.74c.6-.17,1.2-.31,1.81-.42s1.27-.23,1.86-.29a11.72,11.72,0,0,0,1.55-.28,2.57,2.57,0,0,0,1.07-.53,1.33,1.33,0,0,0,.39-1,2.31,2.31,0,0,0-.3-1.26,2,2,0,0,0-.75-.72,3.2,3.2,0,0,0-1-.34A8.47,8.47,0,0,0,671,239a5.12,5.12,0,0,0-2.52.57,2.45,2.45,0,0,0-1.09,2.17H664.9a5,5,0,0,1,.56-2.27,4.29,4.29,0,0,1,1.34-1.5,5.64,5.64,0,0,1,1.92-.82,10,10,0,0,1,2.31-.25,12.57,12.57,0,0,1,1.94.14,4.93,4.93,0,0,1,1.75.57,3.28,3.28,0,0,1,1.28,1.17,3.87,3.87,0,0,1,.48,2v7.44a5.53,5.53,0,0,0,.1,1.22c.06.26.28.4.66.4a2.93,2.93,0,0,0,.72-.12Zm-3.86-7.42a3,3,0,0,1-1.18.49c-.48.1-1,.19-1.52.25l-1.61.22a6.22,6.22,0,0,0-1.46.41,2.66,2.66,0,0,0-1,.79,2.22,2.22,0,0,0-.4,1.41,2,2,0,0,0,.23,1,1.93,1.93,0,0,0,.62.65,2.41,2.41,0,0,0,.88.36,4.81,4.81,0,0,0,1.07.12,5.67,5.67,0,0,0,2-.32,4.32,4.32,0,0,0,1.37-.81,3.2,3.2,0,0,0,.79-1.06,2.62,2.62,0,0,0,.25-1.07Z" transform="translate(0 -141.62)"/><path class="cls-3" d="M684.41,251.68,679,237.2h2.67l4.06,12.07h0l4-12.07h2.49L687,251.68Z" transform="translate(0 -141.62)"/><path class="cls-3" d="M707.54,251.62a3.39,3.39,0,0,1-1.71.37,2.08,2.08,0,0,1-1.47-.52,2.28,2.28,0,0,1-.54-1.7,5.74,5.74,0,0,1-2.29,1.7,7.69,7.69,0,0,1-4.67.29,4.34,4.34,0,0,1-1.53-.7,3.35,3.35,0,0,1-1-1.24,4.88,4.88,0,0,1,0-3.87,3.8,3.8,0,0,1,1.11-1.28,5.38,5.38,0,0,1,1.57-.74,18.1,18.1,0,0,1,1.8-.42c.66-.13,1.28-.23,1.86-.29a11.57,11.57,0,0,0,1.56-.28,2.53,2.53,0,0,0,1.06-.53,1.33,1.33,0,0,0,.39-1,2.41,2.41,0,0,0-.29-1.26,2,2,0,0,0-.76-.72,3,3,0,0,0-1-.34,7.28,7.28,0,0,0-1.14-.08,5.12,5.12,0,0,0-2.52.57,2.45,2.45,0,0,0-1.09,2.17h-2.38a5.28,5.28,0,0,1,.56-2.27,4.42,4.42,0,0,1,1.35-1.5,5.59,5.59,0,0,1,1.91-.82,10,10,0,0,1,2.31-.25,12.15,12.15,0,0,1,2,.14,4.93,4.93,0,0,1,1.75.57,3.48,3.48,0,0,1,1.26,1.21,3.87,3.87,0,0,1,.48,2v7.44a6.21,6.21,0,0,0,.09,1.22c.07.26.29.4.66.4a2.59,2.59,0,0,0,.73-.12Zm-3.86-7.42a3,3,0,0,1-1.18.49c-.49.1-1,.19-1.53.25l-1.61.22a6,6,0,0,0-1.45.41,2.66,2.66,0,0,0-1,.79,2.22,2.22,0,0,0-.41,1.41,1.92,1.92,0,0,0,.24,1,1.76,1.76,0,0,0,.62.65,2.41,2.41,0,0,0,.88.36,4.72,4.72,0,0,0,1.06.12,5.67,5.67,0,0,0,2-.32,4.63,4.63,0,0,0,1.37-.81,3,3,0,0,0,.78-1.06,2.63,2.63,0,0,0,.26-1.07Z" transform="translate(0 -141.62)"/><path class="cls-3" d="M720.43,234.42a5.63,5.63,0,0,0-3.4-1,8.32,8.32,0,0,0-1.65.17,4.36,4.36,0,0,0-1.44.56,3,3,0,0,0-1,1,3.25,3.25,0,0,0-.38,1.64,2,2,0,0,0,.55,1.49,3.87,3.87,0,0,0,1.45.94,12.44,12.44,0,0,0,2.06.6c.77.16,1.55.34,2.34.52s1.57.41,2.34.66a7.86,7.86,0,0,1,2.06,1,4.83,4.83,0,0,1,1.45,1.63,5.63,5.63,0,0,1-.17,5.19,5.77,5.77,0,0,1-1.83,1.85,8,8,0,0,1-2.51,1,11.64,11.64,0,0,1-2.76.33,11.32,11.32,0,0,1-3.17-.42,7.84,7.84,0,0,1-2.63-1.28,6,6,0,0,1-1.8-2.18,7,7,0,0,1-.65-3.15h2.51a4.35,4.35,0,0,0,1.78,3.67,5.4,5.4,0,0,0,1.87.86,8,8,0,0,0,2.18.28,9.88,9.88,0,0,0,1.8-.16,5.35,5.35,0,0,0,1.64-.58,3,3,0,0,0,1.63-2.9,2.56,2.56,0,0,0-.55-1.68,3.93,3.93,0,0,0-1.45-1,10.5,10.5,0,0,0-2.06-.65l-2.34-.52c-.79-.18-1.57-.38-2.34-.62a8.27,8.27,0,0,1-2.06-.92,4.18,4.18,0,0,1-2-3.77,5.33,5.33,0,0,1,.62-2.62,5.42,5.42,0,0,1,1.63-1.74,7.63,7.63,0,0,1,2.32-1.06,10.46,10.46,0,0,1,2.67-.35,11,11,0,0,1,2.86.41,6.68,6.68,0,0,1,2.31,1.15,5.57,5.57,0,0,1,1.57,2,7.12,7.12,0,0,1,.63,2.84H722A4.14,4.14,0,0,0,720.43,234.42Z" transform="translate(0 -141.62)"/><path class="cls-3" d="M737.11,239.72a3.66,3.66,0,0,0-2.41-.75,4.6,4.6,0,0,0-2.16.47,3.8,3.8,0,0,0-1.38,1.26,5.23,5.23,0,0,0-.75,1.81,10.72,10.72,0,0,0-.22,2.11,8.36,8.36,0,0,0,.24,2,5.06,5.06,0,0,0,.74,1.7,3.87,3.87,0,0,0,1.32,1.19,4.54,4.54,0,0,0,4.69-.48,4.22,4.22,0,0,0,1.22-2.6h2.43a6.64,6.64,0,0,1-2,4.14,6.29,6.29,0,0,1-4.38,1.46,7.36,7.36,0,0,1-2.93-.54,5.54,5.54,0,0,1-2.13-1.51,6.38,6.38,0,0,1-1.28-2.34,9.82,9.82,0,0,1-.44-3,10.92,10.92,0,0,1,.42-3,7,7,0,0,1,1.28-2.46,6,6,0,0,1,2.14-1.65,7,7,0,0,1,3-.6,8.56,8.56,0,0,1,2.31.29,5.61,5.61,0,0,1,1.91.91,5,5,0,0,1,1.34,1.49,5.67,5.67,0,0,1,.68,2.23h-2.47A3.71,3.71,0,0,0,737.11,239.72Z" transform="translate(0 -141.62)"/><path class="cls-3" d="M745.93,237.2v3H746a6.49,6.49,0,0,1,2.13-2.6,5.33,5.33,0,0,1,3.19-.78v2.52a6.7,6.7,0,0,0-2.43.39,3.77,3.77,0,0,0-1.63,1.15,4.66,4.66,0,0,0-.89,1.83,9.88,9.88,0,0,0-.28,2.48v6.44h-2.38V237.2Z" transform="translate(0 -141.62)"/><path class="cls-3" d="M753.51,234.62v-2.93h2.38v2.93Zm2.38,2.6V251.7h-2.38V237.2Z" transform="translate(0 -141.62)"/><path class="cls-3" d="M762.33,237.2v2h.06a3.59,3.59,0,0,1,1.85-1.75,7.12,7.12,0,0,1,2.77-.54,6.59,6.59,0,0,1,2.93.61,6.06,6.06,0,0,1,2.06,1.63,7.31,7.31,0,0,1,1.24,2.42,9.9,9.9,0,0,1,.42,2.91,10.17,10.17,0,0,1-.4,2.91,6.76,6.76,0,0,1-1.23,2.4A5.76,5.76,0,0,1,770,251.4a6.88,6.88,0,0,1-4.08.47,5.91,5.91,0,0,1-1.31-.36,5.19,5.19,0,0,1-1.21-.69,3.65,3.65,0,0,1-1-1.07h-.06v7.44H760v-20Zm8.56,5.14a5.43,5.43,0,0,0-.81-1.72,4.07,4.07,0,0,0-1.4-1.21,4.46,4.46,0,0,0-2-.44,4.21,4.21,0,0,0-2,.47,3.91,3.91,0,0,0-1.37,1.25,4.91,4.91,0,0,0-.77,1.75,8.48,8.48,0,0,0-.24,2,7.89,7.89,0,0,0,.25,2,5,5,0,0,0,.8,1.75,4,4,0,0,0,1.41,1.22,4.4,4.4,0,0,0,2.11.46,4.09,4.09,0,0,0,2-.47,3.74,3.74,0,0,0,1.33-1.26,5.29,5.29,0,0,0,.73-1.79,9.68,9.68,0,0,0,.23-2.08A7,7,0,0,0,770.89,242.34Z" transform="translate(0 -141.62)"/><path class="cls-3" d="M782.94,237.2v2.1h-2.88v9a2.5,2.5,0,0,0,.07.67.62.62,0,0,0,.26.39,1.07,1.07,0,0,0,.55.19h2v2.1h-1.82a7.61,7.61,0,0,1-1.58-.13,2.3,2.3,0,0,1-1.06-.46,1.9,1.9,0,0,1-.61-1,5.6,5.6,0,0,1-.19-1.63V239.3h-2.47v-2.1h2.47v-4.34h2.38v4.34Z" transform="translate(0 -141.62)"/><path class="cls-3" d="M658.09,474.35l-4.56-16.8h-.06l-4.62,16.8h-2.77l-5.12-20h2.71L647.59,471h.06l4.48-16.63H655L659.43,471h0l4.06-16.63h2.66l-5.35,20Z" transform="translate(0 -141.62)"/><path class="cls-3" d="M677.27,473.43a6.52,6.52,0,0,1-4.09,1.23,7.51,7.51,0,0,1-3-.56,5.83,5.83,0,0,1-2.14-1.57,6.53,6.53,0,0,1-1.3-2.4,11.71,11.71,0,0,1-.49-3.06,8.75,8.75,0,0,1,.5-3,7.11,7.11,0,0,1,1.42-2.38,6.42,6.42,0,0,1,2.15-1.57,6.58,6.58,0,0,1,2.73-.56,6,6,0,0,1,3.21.8,6.36,6.36,0,0,1,2,2,8,8,0,0,1,1.07,2.69,11.71,11.71,0,0,1,.24,2.77H668.76a6.06,6.06,0,0,0,.24,1.8,4,4,0,0,0,2.24,2.56,4.89,4.89,0,0,0,2,.39,4.12,4.12,0,0,0,2.48-.7,3.45,3.45,0,0,0,1.27-2.13h2.35A5.78,5.78,0,0,1,677.27,473.43Zm-.57-9.3a4.36,4.36,0,0,0-.87-1.3,4.05,4.05,0,0,0-2.93-1.19,4.13,4.13,0,0,0-1.66.32,3.93,3.93,0,0,0-1.28.89,4.27,4.27,0,0,0-.84,1.3,5.41,5.41,0,0,0-.36,1.58h8.32A5.19,5.19,0,0,0,676.7,464.13Z" transform="translate(0 -141.62)"/><path class="cls-3" d="M684.8,454.36v7.48h.06a3.59,3.59,0,0,1,1.85-1.75,6.92,6.92,0,0,1,2.77-.55,6.6,6.6,0,0,1,2.93.62,6,6,0,0,1,2.07,1.66,7.46,7.46,0,0,1,1.24,2.43,9.9,9.9,0,0,1,.42,2.91,10.17,10.17,0,0,1-.4,2.91,7,7,0,0,1-1.23,2.39,5.76,5.76,0,0,1-2.08,1.61,6.54,6.54,0,0,1-2.89.59,6.75,6.75,0,0,1-1.19-.11,7.48,7.48,0,0,1-1.31-.36,4.85,4.85,0,0,1-1.21-.69,3.82,3.82,0,0,1-1-1.08h-.06v1.93h-2.38v-20ZM693.36,465a5.59,5.59,0,0,0-.81-1.73,4.15,4.15,0,0,0-1.4-1.2,4.34,4.34,0,0,0-2-.45,4,4,0,0,0-3.41,1.72,5.38,5.38,0,0,0-.77,1.75,8.48,8.48,0,0,0-.24,2,8.36,8.36,0,0,0,.25,2.06,5.35,5.35,0,0,0,.8,1.75,4,4,0,0,0,1.41,1.22,4.36,4.36,0,0,0,2.1.46,4,4,0,0,0,2.06-.48,3.65,3.65,0,0,0,1.33-1.26,5.29,5.29,0,0,0,.73-1.79,9.58,9.58,0,0,0,.22-2.07A7.39,7.39,0,0,0,693.36,465Z" transform="translate(0 -141.62)"/><path class="cls-3" d="M708,454.36l7.81,20h-2.94l-2.18-6h-8.46l-2.24,6h-2.72l7.79-20Zm1.85,11.73-3.34-9.32h0l-3.39,9.32Z" transform="translate(0 -141.62)"/><path class="cls-3" d="M719.47,471.12a2.53,2.53,0,0,0,.88.87,3.9,3.9,0,0,0,1.23.46,7.55,7.55,0,0,0,1.42.17,9.36,9.36,0,0,0,1.18-.08,4.48,4.48,0,0,0,1.14-.31,2,2,0,0,0,.85-.66,1.75,1.75,0,0,0,.33-1.11,1.6,1.6,0,0,0-.69-1.4,6.52,6.52,0,0,0-1.75-.77c-.7-.19-1.47-.37-2.29-.53a12.16,12.16,0,0,1-2.28-.67,4.77,4.77,0,0,1-1.75-1.22,3.12,3.12,0,0,1-.74-2.25,3.46,3.46,0,0,1,.49-1.88,4,4,0,0,1,1.26-1.27,5.8,5.8,0,0,1,1.74-.73,7.77,7.77,0,0,1,1.92-.24,12.18,12.18,0,0,1,2.26.21,5.14,5.14,0,0,1,1.84.73,3.88,3.88,0,0,1,1.27,1.4,5.12,5.12,0,0,1,.56,2.2H726a2.27,2.27,0,0,0-1.15-1.91,3.62,3.62,0,0,0-1.05-.4,5,5,0,0,0-1.16-.13,6.56,6.56,0,0,0-1.08.09,3.48,3.48,0,0,0-1,.29,2.1,2.1,0,0,0-.73.56,1.47,1.47,0,0,0,.16,1.91,3.19,3.19,0,0,0,1.1.67,9.72,9.72,0,0,0,1.51.45l1.68.38a17.39,17.39,0,0,1,1.75.48,5.79,5.79,0,0,1,1.52.74,3.79,3.79,0,0,1,1.06,1.16,3.44,3.44,0,0,1,.41,1.74,3.92,3.92,0,0,1-2,3.58,6.18,6.18,0,0,1-2,.74,11.52,11.52,0,0,1-2.19.21,9.89,9.89,0,0,1-2.3-.25,5.44,5.44,0,0,1-1.93-.83,4.09,4.09,0,0,1-1.35-1.51,5.33,5.33,0,0,1-.56-2.28h2.38A2.62,2.62,0,0,0,719.47,471.12Z" transform="translate(0 -141.62)"/><path class="cls-3" d="M733.75,471.12a2.53,2.53,0,0,0,.88.87,3.9,3.9,0,0,0,1.23.46,7.51,7.51,0,0,0,1.42.14,9.2,9.2,0,0,0,1.17-.08,4.48,4.48,0,0,0,1.14-.31,2,2,0,0,0,.85-.66,1.82,1.82,0,0,0,.34-1.11,1.62,1.62,0,0,0-.7-1.4,6.52,6.52,0,0,0-1.75-.77c-.7-.19-1.46-.37-2.29-.53a12.16,12.16,0,0,1-2.28-.67,4.77,4.77,0,0,1-1.75-1.22,3.13,3.13,0,0,1-.7-2.18,3.46,3.46,0,0,1,.49-1.88,4,4,0,0,1,1.26-1.27,5.69,5.69,0,0,1,1.74-.73,7.77,7.77,0,0,1,1.92-.24,12.18,12.18,0,0,1,2.26.21,5.14,5.14,0,0,1,1.84.73,3.88,3.88,0,0,1,1.27,1.4,5.12,5.12,0,0,1,.56,2.2h-2.38a2.27,2.27,0,0,0-1.15-1.91,3.61,3.61,0,0,0-1-.4,5,5,0,0,0-1.16-.13,6.56,6.56,0,0,0-1.08.09,3.48,3.48,0,0,0-1,.29,2.1,2.1,0,0,0-.73.56,1.47,1.47,0,0,0,.16,1.91,3.19,3.19,0,0,0,1.1.67,9.72,9.72,0,0,0,1.51.45l1.68.38a17.39,17.39,0,0,1,1.75.48,5.79,5.79,0,0,1,1.52.74,3.79,3.79,0,0,1,1.06,1.16,3.44,3.44,0,0,1,.41,1.74,3.92,3.92,0,0,1-2,3.58,6.18,6.18,0,0,1-2,.74,11.52,11.52,0,0,1-2.19.21,9.89,9.89,0,0,1-2.3-.25,5.44,5.44,0,0,1-1.93-.83,4.09,4.09,0,0,1-1.35-1.51,5.33,5.33,0,0,1-.56-2.28h2.38A2.66,2.66,0,0,0,733.75,471.12Z" transform="translate(0 -141.62)"/><path class="cls-3" d="M756.45,473.43a6.54,6.54,0,0,1-4.08,1.23,7.51,7.51,0,0,1-3-.56,5.87,5.87,0,0,1-2.15-1.57,6.83,6.83,0,0,1-1.3-2.4,11.71,11.71,0,0,1-.49-3.06,8.53,8.53,0,0,1,.51-3,7.08,7.08,0,0,1,1.41-2.38,6.46,6.46,0,0,1,4.89-2.13,6,6,0,0,1,3.2.8,6.32,6.32,0,0,1,2,2,8.22,8.22,0,0,1,1.06,2.69,10.74,10.74,0,0,1,.24,2.77H747.94a5.85,5.85,0,0,0,.23,1.81,4,4,0,0,0,.81,1.51,3.91,3.91,0,0,0,1.43,1.05,4.89,4.89,0,0,0,2,.39,4.12,4.12,0,0,0,2.48-.7,3.36,3.36,0,0,0,1.27-2.13h2.35A5.7,5.7,0,0,1,756.45,473.43Zm-.57-9.3a4,4,0,0,0-.87-1.3,4.19,4.19,0,0,0-1.29-.87,4.34,4.34,0,0,0-1.63-.32,4.17,4.17,0,0,0-1.67.32,3.89,3.89,0,0,0-1.27.89,4,4,0,0,0-.84,1.3,4.8,4.8,0,0,0-.37,1.58h8.32A4.68,4.68,0,0,0,755.88,464.13Z" transform="translate(0 -141.62)"/><path class="cls-3" d="M763.76,459.88V462h.06a5.63,5.63,0,0,1,7.11-1.91,3.13,3.13,0,0,1,1.54,1.91,5.16,5.16,0,0,1,1.92-1.82,5.44,5.44,0,0,1,2.62-.65,7.5,7.5,0,0,1,2,.24,4.1,4.1,0,0,1,1.51.74,3.35,3.35,0,0,1,1,1.3,4.68,4.68,0,0,1,.35,1.92v10.61h-2.38v-9.49a6,6,0,0,0-.11-1.26,2.46,2.46,0,0,0-.42-1,2.12,2.12,0,0,0-.85-.69,3.61,3.61,0,0,0-1.42-.25,3.78,3.78,0,0,0-2.77,1,3.63,3.63,0,0,0-1,2.69v9h-2.38v-9.49a7,7,0,0,0-.12-1.29,2.81,2.81,0,0,0-.44-1,2.06,2.06,0,0,0-.82-.67,3.34,3.34,0,0,0-1.33-.24,3.57,3.57,0,0,0-1.78.42,3.9,3.9,0,0,0-1.21,1,4.16,4.16,0,0,0-.67,1.22,3.44,3.44,0,0,0-.21,1.05v9h-2.38V459.88Z" transform="translate(0 -141.62)"/><path class="cls-3" d="M788.15,454.36v7.48h.06a3.59,3.59,0,0,1,1.85-1.75,6.92,6.92,0,0,1,2.77-.55,6.53,6.53,0,0,1,2.92.62,6,6,0,0,1,2.07,1.66,7.2,7.2,0,0,1,1.25,2.43,9.9,9.9,0,0,1,.42,2.91,10.17,10.17,0,0,1-.4,2.91,7.17,7.17,0,0,1-1.24,2.39,5.72,5.72,0,0,1-2.07,1.61,6.58,6.58,0,0,1-2.9.59,6.75,6.75,0,0,1-1.19-.11,7.37,7.37,0,0,1-1.3-.36,5.05,5.05,0,0,1-1.22-.69,3.82,3.82,0,0,1-1-1.08h-.06v1.93h-2.38v-20ZM796.7,465a5.08,5.08,0,0,0-.81-1.73,4.15,4.15,0,0,0-1.4-1.2,4.22,4.22,0,0,0-2-.45,4.08,4.08,0,0,0-2,.48,4.21,4.21,0,0,0-1.38,1.24,5.15,5.15,0,0,0-.76,1.75,8.48,8.48,0,0,0-.24,2,8.36,8.36,0,0,0,.25,2.06,4.89,4.89,0,0,0,.8,1.75,4,4,0,0,0,1.41,1.22,4.36,4.36,0,0,0,2.1.46,4,4,0,0,0,2.06-.48,3.65,3.65,0,0,0,1.33-1.26,5.29,5.29,0,0,0,.73-1.79A9.58,9.58,0,0,0,797,467,7.37,7.37,0,0,0,796.7,465Z" transform="translate(0 -141.62)"/><path class="cls-3" d="M805.09,454.36v20h-2.38v-20Z" transform="translate(0 -141.62)"/><path class="cls-3" d="M814.75,476.29a16.17,16.17,0,0,1-.83,1.79,5.21,5.21,0,0,1-.89,1.19,2.93,2.93,0,0,1-1.09.67,4.12,4.12,0,0,1-1.39.21,5.93,5.93,0,0,1-.84-.06,3.19,3.19,0,0,1-.81-.19v-2.19a3,3,0,0,0,.71.24,2.68,2.68,0,0,0,.69.1,2.12,2.12,0,0,0,1.22-.35,2.18,2.18,0,0,0,.74-1l1-2.44-5.74-14.39h2.69l4.22,11.84h.06l4.06-11.84h2.52Z" transform="translate(0 -141.62)"/><path class="cls-3" d="M408,456.73a6.25,6.25,0,0,0-3.63-1.06,6.48,6.48,0,0,0-3.06.67,6.08,6.08,0,0,0-2.1,1.8,7.8,7.8,0,0,0-1.22,2.59,11.71,11.71,0,0,0-.39,3A13,13,0,0,0,398,467a7.67,7.67,0,0,0,1.22,2.66,6,6,0,0,0,2.11,1.81,6.56,6.56,0,0,0,3.08.67,6,6,0,0,0,2.34-.44,5.15,5.15,0,0,0,1.76-1.2,5.33,5.33,0,0,0,1.16-1.83,7.59,7.59,0,0,0,.51-2.3h2.66a9,9,0,0,1-2.61,5.88,8.41,8.41,0,0,1-6,2.1,9.59,9.59,0,0,1-4.06-.8,7.9,7.9,0,0,1-2.89-2.2,9.39,9.39,0,0,1-1.72-3.3,14.13,14.13,0,0,1-.57-4.09,13.27,13.27,0,0,1,.61-4.1,9.83,9.83,0,0,1,1.81-3.35,8.3,8.3,0,0,1,3-2.25,9.67,9.67,0,0,1,4.07-.83,10.12,10.12,0,0,1,3,.42,8.3,8.3,0,0,1,2.49,1.24,7,7,0,0,1,1.82,2,7.61,7.61,0,0,1,1,2.81h-2.66A5,5,0,0,0,408,456.73Z" transform="translate(0 -141.62)"/><path class="cls-3" d="M415.64,463.69a6.75,6.75,0,0,1,1.35-2.41,6.31,6.31,0,0,1,2.21-1.61,8.14,8.14,0,0,1,6.06,0,6.36,6.36,0,0,1,2.2,1.61,6.58,6.58,0,0,1,1.34,2.41,10.06,10.06,0,0,1,0,5.95,6.73,6.73,0,0,1-1.34,2.39,6.33,6.33,0,0,1-2.2,1.6,8.34,8.34,0,0,1-6.06,0A6.16,6.16,0,0,1,417,472a6.67,6.67,0,0,1-1.35-2.39A10.06,10.06,0,0,1,415.64,463.69Zm2.42,5.32a5,5,0,0,0,1,1.7,4.15,4.15,0,0,0,1.44,1.05,4.27,4.27,0,0,0,3.5,0,4.15,4.15,0,0,0,1.44-1.05,4.72,4.72,0,0,0,1-1.7,7.94,7.94,0,0,0,0-4.68,4.89,4.89,0,0,0-1-1.72,4.21,4.21,0,0,0-1.44-1.07,4.43,4.43,0,0,0-3.5,0,4.12,4.12,0,0,0-1.5,1.08,5.31,5.31,0,0,0-1,1.72,7.94,7.94,0,0,0,0,4.68Z" transform="translate(0 -141.62)"/><path class="cls-3" d="M434.57,459.42v2.12h.06a5.24,5.24,0,0,1,4.67-2.46,5.29,5.29,0,0,1,2.44.56,3.14,3.14,0,0,1,1.54,1.9,5,5,0,0,1,1.92-1.82,5.39,5.39,0,0,1,2.61-.64,7.5,7.5,0,0,1,2,.24,4.1,4.1,0,0,1,1.51.74,3.35,3.35,0,0,1,1,1.3,4.68,4.68,0,0,1,.35,1.92v10.61h-2.38V464.4a7.66,7.66,0,0,0-.11-1.26,2.6,2.6,0,0,0-.42-1,2.12,2.12,0,0,0-.85-.69,3.44,3.44,0,0,0-1.42-.25,3.74,3.74,0,0,0-2.77,1,3.63,3.63,0,0,0-1,2.69v9h-2.38V464.4a5.59,5.59,0,0,0-.13-1.29,2.62,2.62,0,0,0-.43-1,2.06,2.06,0,0,0-.82-.67,3.22,3.22,0,0,0-1.34-.24,3.51,3.51,0,0,0-1.77.42,3.9,3.9,0,0,0-1.21,1,4.16,4.16,0,0,0-.67,1.22,3.44,3.44,0,0,0-.21,1.05v9h-2.38V459.42Z" transform="translate(0 -141.62)"/><path class="cls-3" d="M459,459.42v2h0a3.59,3.59,0,0,1,1.85-1.75,6.92,6.92,0,0,1,2.77-.55,6.6,6.6,0,0,1,2.93.62,6,6,0,0,1,2.07,1.66,7.34,7.34,0,0,1,1.25,2.42,10,10,0,0,1,.42,2.92,10.18,10.18,0,0,1-.41,2.91,7,7,0,0,1-1.23,2.39,5.81,5.81,0,0,1-2.07,1.61,7.13,7.13,0,0,1-4.09.48,6.63,6.63,0,0,1-1.3-.37,4.43,4.43,0,0,1-1.22-.68,3.82,3.82,0,0,1-1-1.08h0v7.45h-2.38v-20Zm8.55,5.13a5.54,5.54,0,0,0-.81-1.72,4.15,4.15,0,0,0-1.4-1.2,4.34,4.34,0,0,0-2-.45,4,4,0,0,0-3.42,1.72,5.38,5.38,0,0,0-.77,1.75,8.48,8.48,0,0,0-.24,2,8.37,8.37,0,0,0,.26,2.06,5.13,5.13,0,0,0,.79,1.75,4.16,4.16,0,0,0,1.42,1.22,4.48,4.48,0,0,0,2.1.46,4,4,0,0,0,2.06-.48,3.65,3.65,0,0,0,1.33-1.26,5.48,5.48,0,0,0,.72-1.79,9.59,9.59,0,0,0,.23-2.07,7.51,7.51,0,0,0-.31-2Z" transform="translate(0 -141.62)"/><path class="cls-3" d="M473.52,456.81V453.9h2.38v2.91Zm2.38,2.61v14.47h-2.38V459.42Z" transform="translate(0 -141.62)"/><path class="cls-3" d="M482.39,453.9v20H480v-20Z" transform="translate(0 -141.62)"/><path class="cls-3" d="M496.62,473a6.58,6.58,0,0,1-4.09,1.23,7.51,7.51,0,0,1-3-.56,5.91,5.91,0,0,1-2.14-1.57,6.53,6.53,0,0,1-1.3-2.4,11.31,11.31,0,0,1-.49-3.06,8.75,8.75,0,0,1,.5-3,7.29,7.29,0,0,1,1.41-2.38,6.46,6.46,0,0,1,2.16-1.57,6.58,6.58,0,0,1,2.73-.56,6,6,0,0,1,3.21.8,6.36,6.36,0,0,1,2,2,7.93,7.93,0,0,1,1.09,2.72,10.74,10.74,0,0,1,.24,2.77H488.11a5.74,5.74,0,0,0,.22,1.8,4.14,4.14,0,0,0,.81,1.52,3.91,3.91,0,0,0,1.43,1.05,4.89,4.89,0,0,0,2,.39,4.05,4.05,0,0,0,2.48-.7,3.37,3.37,0,0,0,1.28-2.13h2.35A5.81,5.81,0,0,1,496.62,473Zm-.58-9.3a4,4,0,0,0-.86-1.3,4.51,4.51,0,0,0-1.29-.87,4.39,4.39,0,0,0-1.64-.32,4.17,4.17,0,0,0-1.67.32,4,4,0,0,0-2.11,2.19,4.78,4.78,0,0,0-.36,1.58h8.31a5,5,0,0,0-.42-1.6Z" transform="translate(0 -141.62)"/><path class="cls-3" d="M503.84,459.42v3.05h.06a6.41,6.41,0,0,1,2.12-2.61,5.38,5.38,0,0,1,3.2-.78v2.54a6.75,6.75,0,0,0-2.44.39,3.89,3.89,0,0,0-1.62,1.15,4.82,4.82,0,0,0-.9,1.83,9.88,9.88,0,0,0-.28,2.48v6.44H501.6V459.42Z" transform="translate(0 -141.62)"/><path class="cls-3" d="M102.12,457.28l7.81,20H107l-2.18-6H96.35l-2.24,6H91.39l7.79-20ZM104,469l-3.34-9.32h0L97.27,469Z" transform="translate(0 -141.62)"/><path class="cls-3" d="M114.24,462.8v2h.06a3.59,3.59,0,0,1,1.85-1.75,6.92,6.92,0,0,1,2.77-.55,6.53,6.53,0,0,1,2.92.62,6,6,0,0,1,2.08,1.66,7.46,7.46,0,0,1,1.24,2.43,9.9,9.9,0,0,1,.42,2.91,10.17,10.17,0,0,1-.4,2.91,6.82,6.82,0,0,1-1.24,2.39,5.64,5.64,0,0,1-2.07,1.61,6.45,6.45,0,0,1-2.9.59,6.75,6.75,0,0,1-1.19-.11,7.37,7.37,0,0,1-1.3-.36,5.05,5.05,0,0,1-1.22-.69,3.82,3.82,0,0,1-1-1.08h-.06v7.45h-2.38v-20Zm8.56,5.14a5.3,5.3,0,0,0-.82-1.73,4.15,4.15,0,0,0-1.4-1.2,4.22,4.22,0,0,0-2-.45,4,4,0,0,0-3.41,1.72,4.91,4.91,0,0,0-.77,1.75,8.48,8.48,0,0,0-.24,2,8.36,8.36,0,0,0,.25,2.06,4.89,4.89,0,0,0,.8,1.75,4,4,0,0,0,1.41,1.22,4.36,4.36,0,0,0,2.1.46,4,4,0,0,0,2.06-.48,3.65,3.65,0,0,0,1.33-1.26,5.29,5.29,0,0,0,.73-1.79,9.58,9.58,0,0,0,.22-2.07A7.8,7.8,0,0,0,122.8,467.94Z" transform="translate(0 -141.62)"/><path class="cls-3" d="M131.13,462.8v2h.05a3.59,3.59,0,0,1,1.85-1.75,6.92,6.92,0,0,1,2.77-.55,6.6,6.6,0,0,1,2.93.62,6,6,0,0,1,2.07,1.66,7.48,7.48,0,0,1,1.25,2.43,9.9,9.9,0,0,1,.42,2.91,10.18,10.18,0,0,1-.41,2.91,7,7,0,0,1-1.23,2.39,5.64,5.64,0,0,1-2.07,1.61,6.58,6.58,0,0,1-2.9.59,7.33,7.33,0,0,1-2.49-.47,4.74,4.74,0,0,1-1.22-.69,3.82,3.82,0,0,1-1-1.08h-.05v7.45h-2.38v-20Zm8.55,5.14a5.59,5.59,0,0,0-.81-1.73,4.15,4.15,0,0,0-1.4-1.2,4.34,4.34,0,0,0-2-.45,4,4,0,0,0-3.42,1.72,5.38,5.38,0,0,0-.77,1.75,8.48,8.48,0,0,0-.24,2,8.87,8.87,0,0,0,.25,2.06,5.35,5.35,0,0,0,.8,1.75,4.16,4.16,0,0,0,1.42,1.22,4.25,4.25,0,0,0,2.1.46,4,4,0,0,0,2-.48,3.65,3.65,0,0,0,1.33-1.26,5.29,5.29,0,0,0,.73-1.79,9.59,9.59,0,0,0,.23-2.07,7.34,7.34,0,0,0-.22-2Z" transform="translate(0 -141.62)"/><path class="cls-3" d="M148.07,457.28v20h-2.38v-20Z" transform="translate(0 -141.62)"/><path class="cls-3" d="M152.18,460.19v-2.91h2.38v2.91Zm2.38,2.61v14.47h-2.38V462.8Z" transform="translate(0 -141.62)"/><path class="cls-3" d="M167.19,465.32a3.55,3.55,0,0,0-2.41-.76,4.32,4.32,0,0,0-2.15.48,3.83,3.83,0,0,0-1.39,1.26,5.16,5.16,0,0,0-.74,1.8,10.12,10.12,0,0,0-.23,2.12,8.36,8.36,0,0,0,.24,2,5.54,5.54,0,0,0,.74,1.69,3.68,3.68,0,0,0,1.32,1.19,4.5,4.5,0,0,0,4.69-.47,4.22,4.22,0,0,0,1.22-2.61h2.43a6.69,6.69,0,0,1-2,4.15,6.28,6.28,0,0,1-4.38,1.45,7.53,7.53,0,0,1-2.93-.53,5.5,5.5,0,0,1-2.12-1.51,6.55,6.55,0,0,1-1.29-2.34,9.82,9.82,0,0,1-.44-3,10.92,10.92,0,0,1,.42-3,7,7,0,0,1,1.28-2.46,6,6,0,0,1,2.14-1.66,7,7,0,0,1,3-.6,9,9,0,0,1,2.31.3,5.56,5.56,0,0,1,1.9.91,5,5,0,0,1,1.36,1.55,5.83,5.83,0,0,1,.67,2.23h-2.46A3.6,3.6,0,0,0,167.19,465.32Z" transform="translate(0 -141.62)"/><path class="cls-3" d="M186.68,477.22a3.39,3.39,0,0,1-1.68.4,2,2,0,0,1-1.47-.52,2.21,2.21,0,0,1-.55-1.69,5.62,5.62,0,0,1-2.28,1.69,7.85,7.85,0,0,1-4.67.3,4.34,4.34,0,0,1-1.53-.7,3.38,3.38,0,0,1-1-1.25,4.11,4.11,0,0,1-.38-1.86,4.31,4.31,0,0,1,.42-2,3.77,3.77,0,0,1,1.11-1.27,5.21,5.21,0,0,1,1.56-.74c.6-.17,1.2-.31,1.81-.42s1.29-.23,1.86-.3a9.11,9.11,0,0,0,1.56-.28,2.53,2.53,0,0,0,1.06-.53,1.28,1.28,0,0,0,.39-1,2.41,2.41,0,0,0-.29-1.26,2,2,0,0,0-.76-.73,3,3,0,0,0-1-.33,7.3,7.3,0,0,0-1.14-.09,5,5,0,0,0-2.52.58,2.45,2.45,0,0,0-1.09,2.17h-2.38a5.11,5.11,0,0,1,.56-2.27,4.29,4.29,0,0,1,1.34-1.5,5.77,5.77,0,0,1,1.92-.83,10.55,10.55,0,0,1,2.31-.25,14.83,14.83,0,0,1,2,.14,5.45,5.45,0,0,1,1.75.57,3.43,3.43,0,0,1,1.26,1.22,4,4,0,0,1,.47,2v7.43a5.63,5.63,0,0,0,.1,1.23q.11.39.66.39a3,3,0,0,0,.73-.11Zm-3.87-7.42a3.1,3.1,0,0,1-1.17.49c-.49.1-1,.18-1.53.25l-1.61.22a6,6,0,0,0-1.45.4,2.66,2.66,0,0,0-1.05.8,2.14,2.14,0,0,0-.41,1.4,1.92,1.92,0,0,0,.24,1,2,2,0,0,0,.61.66,2.78,2.78,0,0,0,.89.36,5.37,5.37,0,0,0,1.06.11,5.45,5.45,0,0,0,2-.32,4.14,4.14,0,0,0,1.37-.81,3.14,3.14,0,0,0,.78-1.06,2.62,2.62,0,0,0,.25-1.07Z" transform="translate(0 -141.62)"/><path class="cls-3" d="M195.36,462.8v2.1h-2.89v9a3,3,0,0,0,.07.67.68.68,0,0,0,.27.39,1.28,1.28,0,0,0,.54.18,6.91,6.91,0,0,0,.91,0h1.1v2.1h-1.82a8.52,8.52,0,0,1-1.59-.12,2.46,2.46,0,0,1-1.06-.46,2,2,0,0,1-.6-1,5.54,5.54,0,0,1-.2-1.62v-9.21h-2.46v-2.1h2.46v-4.34h2.38v4.34Z" transform="translate(0 -141.62)"/><path class="cls-3" d="M198.41,460.19v-2.91h2.38v2.91Zm2.38,2.61v14.47h-2.38V462.8Z" transform="translate(0 -141.62)"/><path class="cls-3" d="M204.43,467.07a6.58,6.58,0,0,1,1.34-2.41,6.4,6.4,0,0,1,2.21-1.61,8.07,8.07,0,0,1,6.07,0,6.23,6.23,0,0,1,2.19,1.61,6.75,6.75,0,0,1,1.35,2.41,10.06,10.06,0,0,1,0,5.95,6.67,6.67,0,0,1-1.35,2.39,6.09,6.09,0,0,1-2.19,1.6,8.37,8.37,0,0,1-6.07,0,6.16,6.16,0,0,1-2.21-1.6,6.73,6.73,0,0,1-1.34-2.39A10.06,10.06,0,0,1,204.43,467.07Zm2.42,5.32a4.76,4.76,0,0,0,1,1.71,4.34,4.34,0,0,0,1.44,1,4.43,4.43,0,0,0,3.5,0,4.34,4.34,0,0,0,1.44-1,5.17,5.17,0,0,0,1-1.71,7.94,7.94,0,0,0,0-4.68,5.31,5.31,0,0,0-1-1.72,4,4,0,0,0-1.44-1.06,4.35,4.35,0,0,0-3.5,0,4,4,0,0,0-1.44,1.06,4.89,4.89,0,0,0-1,1.72A7.94,7.94,0,0,0,206.85,472.39Z" transform="translate(0 -141.62)"/><path class="cls-3" d="M223.36,462.8v2.29h0a5,5,0,0,1,4.71-2.63,6.43,6.43,0,0,1,2.38.39,3.85,3.85,0,0,1,2.36,2.76,8.57,8.57,0,0,1,.24,2.14v9.52h-2.38v-9.8a2.87,2.87,0,0,0-.78-2.12,2.92,2.92,0,0,0-2.16-.79,4.69,4.69,0,0,0-1.89.34,3.55,3.55,0,0,0-1.33,1,4.16,4.16,0,0,0-.8,1.44,5.87,5.87,0,0,0-.26,1.81v8.17h-2.38V462.8Z" transform="translate(0 -141.62)"/><path class="cls-4" d="M774.4,378.23c0,3.3-1.77,6-4,6H666c-2.2,0-4-2.67-4-6V270.4c0-3.3,1.77-6,4-6H770.44c2.19,0,4,2.67,4,6Z" transform="translate(0 -141.62)"/><line class="cls-5" x1="670" y1="133.72" x2="733.89" y2="133.72"/><line class="cls-5" x1="671.54" y1="144.04" x2="735.42" y2="144.04"/><line class="cls-5" x1="684.17" y1="154.57" x2="748.06" y2="154.57"/><line class="cls-5" x1="698.92" y1="165.1" x2="762.8" y2="165.1"/><line class="cls-5" x1="684.17" y1="186.16" x2="748.06" y2="186.16"/><line class="cls-5" x1="684.17" y1="196.69" x2="748.06" y2="196.69"/><line class="cls-5" x1="673.64" y1="207.22" x2="737.53" y2="207.22"/><line class="cls-5" x1="684.17" y1="217.75" x2="748.06" y2="217.75"/><path class="cls-4" d="M793.89,433.48c0,3.3-1.82,6-4.07,6H682.61c-2.25,0-4.07-2.67-4.07-6V325.62c0-3.29,1.82-6,4.07-6H789.82c2.25,0,4.07,2.68,4.07,6Z" transform="translate(0 -141.62)"/><path class="cls-3" d="M687.11,331.62a1.13,1.13,0,0,1,.49-.92l2.52-2.86a1.06,1.06,0,0,1,.71-.34,1.25,1.25,0,0,1,.7.21.71.71,0,0,1,.31.58v17.63a.64.64,0,0,1-.34.58,1.67,1.67,0,0,1-1.62,0,.67.67,0,0,1-.34-.58V330.76l-1,1.44a.8.8,0,0,1-.57.29.74.74,0,0,1-.6-.27A.89.89,0,0,1,687.11,331.62Z" transform="translate(0 -141.62)"/><path class="cls-3" d="M696.9,331.62a1.13,1.13,0,0,1,.49-.92l2.52-2.86a1.06,1.06,0,0,1,.71-.34,1.2,1.2,0,0,1,.69.21.68.68,0,0,1,.32.58v17.63a.67.67,0,0,1-.34.58,1.67,1.67,0,0,1-1.62,0,.67.67,0,0,1-.34-.58V330.76l-1,1.44a.76.76,0,0,1-1.18,0A1,1,0,0,1,696.9,331.62Z" transform="translate(0 -141.62)"/><path class="cls-3" d="M706.69,331.62a1.13,1.13,0,0,1,.49-.92l2.51-2.86a1.11,1.11,0,0,1,.72-.34,1.2,1.2,0,0,1,.69.21.68.68,0,0,1,.32.58v17.63a.65.65,0,0,1-.35.58,1.41,1.41,0,0,1-.8.21,1.47,1.47,0,0,1-.81-.21.64.64,0,0,1-.34-.58V330.76l-1,1.44a.76.76,0,0,1-1.18,0A1,1,0,0,1,706.69,331.62Z" transform="translate(0 -141.62)"/><path class="cls-3" d="M717.73,341.1v-7.9a5.45,5.45,0,0,1,1.6-4.34,7.34,7.34,0,0,1,8.57,0,5.38,5.38,0,0,1,1.62,4.34v7.9a5.38,5.38,0,0,1-1.62,4.34,7.34,7.34,0,0,1-8.57,0A5.45,5.45,0,0,1,717.73,341.1Zm2.3,0q0,3.72,3.58,3.72a3.64,3.64,0,0,0,2.67-.93,3.75,3.75,0,0,0,.94-2.79v-7.9a3.78,3.78,0,0,0-.94-2.8,3.68,3.68,0,0,0-2.67-.93c-2.39,0-3.58,1.25-3.58,3.73Zm2.82-3.26a1,1,0,0,1-.31-.72.93.93,0,0,1,.31-.7,1.14,1.14,0,0,1,.79-.28,1.07,1.07,0,0,1,.76.28.9.9,0,0,1,.3.7,1,1,0,0,1-.3.72,1,1,0,0,1-.76.29A1.05,1.05,0,0,1,722.85,337.84Z" transform="translate(0 -141.62)"/><path class="cls-3" d="M735.53,341.1v-7.9a5.45,5.45,0,0,1,1.6-4.34,7.34,7.34,0,0,1,8.57,0,5.38,5.38,0,0,1,1.62,4.34v7.9a5.38,5.38,0,0,1-1.62,4.34,7.34,7.34,0,0,1-8.57,0A5.45,5.45,0,0,1,735.53,341.1Zm2.3,0q0,3.72,3.58,3.72a3.64,3.64,0,0,0,2.67-.93,3.75,3.75,0,0,0,.94-2.79v-7.9a3.78,3.78,0,0,0-.94-2.8,3.68,3.68,0,0,0-2.67-.93c-2.39,0-3.58,1.25-3.58,3.73Zm2.82-3.26a1,1,0,0,1-.31-.72.93.93,0,0,1,.31-.7,1.14,1.14,0,0,1,.79-.28,1.07,1.07,0,0,1,.76.28.9.9,0,0,1,.3.7,1,1,0,0,1-.3.72,1,1,0,0,1-.76.29A1.05,1.05,0,0,1,740.65,337.84Z" transform="translate(0 -141.62)"/><path class="cls-3" d="M752.07,331.62a1.14,1.14,0,0,1,.5-.92l2.51-2.86a1.09,1.09,0,0,1,.71-.34,1.25,1.25,0,0,1,.7.21.66.66,0,0,1,.31.58v17.63a.64.64,0,0,1-.34.58,1.41,1.41,0,0,1-.8.21,1.47,1.47,0,0,1-.81-.21.64.64,0,0,1-.34-.58V330.76l-1,1.44a.84.84,0,0,1-.58.29.74.74,0,0,1-.6-.27A1,1,0,0,1,752.07,331.62Z" transform="translate(0 -141.62)"/><path class="cls-3" d="M761.86,331.62a1.14,1.14,0,0,1,.5-.92l2.51-2.86a1.06,1.06,0,0,1,.71-.34,1.25,1.25,0,0,1,.7.21.66.66,0,0,1,.31.58v17.63a.64.64,0,0,1-.34.58,1.65,1.65,0,0,1-1.61,0,.64.64,0,0,1-.34-.58V330.76l-1,1.44a.8.8,0,0,1-.57.29.74.74,0,0,1-.6-.27A1,1,0,0,1,761.86,331.62Z" transform="translate(0 -141.62)"/><path class="cls-3" d="M772.91,341.1v-7.9a5.42,5.42,0,0,1,1.6-4.34,7.34,7.34,0,0,1,8.57,0,5.41,5.41,0,0,1,1.61,4.34v7.9a5.4,5.4,0,0,1-1.61,4.34,7.34,7.34,0,0,1-8.57,0A5.41,5.41,0,0,1,772.91,341.1Zm2.3,0q0,3.72,3.58,3.72a3.6,3.6,0,0,0,2.66-.93,3.76,3.76,0,0,0,.95-2.79v-7.9a3.79,3.79,0,0,0-.95-2.8,3.6,3.6,0,0,0-2.66-.93c-2.39,0-3.58,1.25-3.58,3.73Zm2.81-3.26a1,1,0,0,1-.3-.72.9.9,0,0,1,.3-.7,1.17,1.17,0,0,1,.8-.28,1.07,1.07,0,0,1,.76.28.9.9,0,0,1,.3.7,1,1,0,0,1-.3.72,1,1,0,0,1-.76.29,1.08,1.08,0,0,1-.82-.29Z" transform="translate(0 -141.62)"/><path class="cls-3" d="M687.11,359.36a1.09,1.09,0,0,1,.49-.92l2.52-2.86a1,1,0,0,1,.71-.34,1.25,1.25,0,0,1,.7.21.69.69,0,0,1,.31.57v17.6a.66.66,0,0,1-.34.58,1.67,1.67,0,0,1-1.62,0,.67.67,0,0,1-.34-.58V358.54l-1,1.45a.8.8,0,0,1-.57.29.78.78,0,0,1-.6-.28A.9.9,0,0,1,687.11,359.36Z" transform="translate(0 -141.62)"/><path class="cls-3" d="M699.3,368.88V361a5.45,5.45,0,0,1,1.6-4.34,7.34,7.34,0,0,1,8.57,0,5.41,5.41,0,0,1,1.61,4.34v7.9a5.42,5.42,0,0,1-1.61,4.35,7.38,7.38,0,0,1-8.57,0A5.43,5.43,0,0,1,699.3,368.88Zm2.3,0c0,2.49,1.19,3.74,3.58,3.73a3.56,3.56,0,0,0,2.66-.93,3.72,3.72,0,0,0,.95-2.8V361a3.76,3.76,0,0,0-.95-2.79,3.6,3.6,0,0,0-2.66-.93q-3.58,0-3.58,3.72Zm2.81-3.25a1,1,0,0,1-.3-.72.91.91,0,0,1,.3-.71,1.17,1.17,0,0,1,.8-.28,1.07,1.07,0,0,1,.76.28.91.91,0,0,1,.3.71,1,1,0,0,1-1.06,1,1.12,1.12,0,0,1-.8-.3Z" transform="translate(0 -141.62)"/><path class="cls-3" d="M717,359.36a1.09,1.09,0,0,1,.49-.92l2.51-2.82a1,1,0,0,1,.71-.34,1.25,1.25,0,0,1,.7.21.67.67,0,0,1,.32.57v17.56a.67.67,0,0,1-.35.58,1.41,1.41,0,0,1-.8.21,1.47,1.47,0,0,1-.81-.21.66.66,0,0,1-.34-.58V358.54l-1,1.45a.75.75,0,0,1-1,.13.8.8,0,0,1-.13-.13A.91.91,0,0,1,717,359.36Z" transform="translate(0 -141.62)"/><path class="cls-3" d="M727.92,359.36a1.09,1.09,0,0,1,.49-.92l2.52-2.86a1,1,0,0,1,.71-.34,1.25,1.25,0,0,1,.7.21.69.69,0,0,1,.31.57v17.6a.66.66,0,0,1-.34.58,1.47,1.47,0,0,1-.81.21,1.41,1.41,0,0,1-.8-.21.67.67,0,0,1-.35-.58V358.54l-1,1.45a.8.8,0,0,1-.57.29.78.78,0,0,1-.6-.28A.9.9,0,0,1,727.92,359.36Z" transform="translate(0 -141.62)"/><path class="cls-3" d="M740.11,368.88V361a5.45,5.45,0,0,1,1.6-4.34,7.34,7.34,0,0,1,8.57,0,5.41,5.41,0,0,1,1.61,4.34v7.9a5.42,5.42,0,0,1-1.61,4.35,7.38,7.38,0,0,1-8.57,0A5.43,5.43,0,0,1,740.11,368.88Zm2.3,0c0,2.49,1.19,3.74,3.58,3.73a3.56,3.56,0,0,0,2.66-.93,3.75,3.75,0,0,0,1-2.8V361a3.77,3.77,0,0,0-1-2.79,3.6,3.6,0,0,0-2.66-.93c-2.39,0-3.59,1.24-3.58,3.72Zm2.81-3.25a1,1,0,0,1-.3-.72.91.91,0,0,1,.3-.71,1.23,1.23,0,0,1,1.56,0,.91.91,0,0,1,.3.71,1,1,0,0,1-.3.72,1.08,1.08,0,0,1-.76.29,1.12,1.12,0,0,1-.8-.3Z" transform="translate(0 -141.62)"/><path class="cls-3" d="M757.8,359.36a1.09,1.09,0,0,1,.49-.92l2.51-2.82a1,1,0,0,1,.72-.34,1.2,1.2,0,0,1,.69.21.67.67,0,0,1,.32.57v17.56a.67.67,0,0,1-.34.58,1.67,1.67,0,0,1-1.62,0,.66.66,0,0,1-.34-.58V358.54l-1,1.45a.75.75,0,0,1-1.05.13l-.13-.13A.91.91,0,0,1,757.8,359.36Z" transform="translate(0 -141.62)"/><path class="cls-3" d="M768.73,359.36a1.09,1.09,0,0,1,.49-.92l2.52-2.86a1,1,0,0,1,.71-.34,1.25,1.25,0,0,1,.7.21.64.64,0,0,1,.31.57v17.6a.66.66,0,0,1-.34.58,1.47,1.47,0,0,1-.81.21,1.41,1.41,0,0,1-.8-.21.67.67,0,0,1-.35-.58V358.54l-1,1.45a.8.8,0,0,1-.57.29.78.78,0,0,1-.6-.28A.9.9,0,0,1,768.73,359.36Z" transform="translate(0 -141.62)"/><path class="cls-3" d="M779.66,359.36a1.1,1.1,0,0,1,.5-.92l2.51-2.86a1,1,0,0,1,.71-.34,1.25,1.25,0,0,1,.7.21.64.64,0,0,1,.31.57v17.6a.66.66,0,0,1-.34.58,1.47,1.47,0,0,1-.81.21,1.41,1.41,0,0,1-.8-.21.66.66,0,0,1-.34-.58V358.54l-1,1.45a.8.8,0,0,1-.57.29.78.78,0,0,1-.6-.28A.91.91,0,0,1,779.66,359.36Z" transform="translate(0 -141.62)"/><path class="cls-3" d="M688.37,396.67v-7.9a5.41,5.41,0,0,1,1.6-4.34,6.31,6.31,0,0,1,4.27-1.38,6.38,6.38,0,0,1,4.3,1.38,5.41,5.41,0,0,1,1.61,4.34v7.9a5.4,5.4,0,0,1-1.61,4.34,6.38,6.38,0,0,1-4.3,1.38A6.31,6.31,0,0,1,690,401,5.44,5.44,0,0,1,688.37,396.67Zm2.29,0c0,2.48,1.2,3.72,3.58,3.72a3.64,3.64,0,0,0,2.67-.93,3.75,3.75,0,0,0,.94-2.79v-7.9a3.78,3.78,0,0,0-.94-2.8,3.68,3.68,0,0,0-2.67-.93c-2.38,0-3.58,1.25-3.58,3.73Zm2.82-3.26a1,1,0,0,1-.3-.72.9.9,0,0,1,.3-.7,1.14,1.14,0,0,1,.79-.28,1.1,1.1,0,0,1,.77.28.9.9,0,0,1,.3.7,1,1,0,0,1-.3.72,1,1,0,0,1-.77.29,1.05,1.05,0,0,1-.79-.29Z" transform="translate(0 -141.62)"/><path class="cls-3" d="M708.48,396.67v-7.9a5.41,5.41,0,0,1,1.6-4.34,7.34,7.34,0,0,1,8.57,0,5.38,5.38,0,0,1,1.61,4.34v7.9a5.4,5.4,0,0,1-1.61,4.34,7.34,7.34,0,0,1-8.57,0A5.44,5.44,0,0,1,708.48,396.67Zm2.3,0q0,3.72,3.58,3.72a3.56,3.56,0,0,0,2.66-.93,3.77,3.77,0,0,0,1-2.79v-7.9a3.8,3.8,0,0,0-1-2.8,3.6,3.6,0,0,0-2.66-.93c-2.39,0-3.58,1.25-3.58,3.73Zm2.81-3.26a1,1,0,0,1-.3-.72.9.9,0,0,1,.3-.7,1.17,1.17,0,0,1,.8-.28,1.07,1.07,0,0,1,.76.28.9.9,0,0,1,.3.7,1,1,0,0,1-.3.72,1,1,0,0,1-.76.29,1.07,1.07,0,0,1-.8-.29Z" transform="translate(0 -141.62)"/><path class="cls-3" d="M728.59,396.67v-7.9a5.45,5.45,0,0,1,1.6-4.34,7.34,7.34,0,0,1,8.57,0,5.38,5.38,0,0,1,1.62,4.34v7.9a5.41,5.41,0,0,1-1.62,4.34,7.34,7.34,0,0,1-8.57,0A5.45,5.45,0,0,1,728.59,396.67Zm2.3,0q0,3.72,3.58,3.72a3.64,3.64,0,0,0,2.67-.93,3.75,3.75,0,0,0,.94-2.79v-7.9a3.78,3.78,0,0,0-.94-2.8,3.68,3.68,0,0,0-2.67-.93c-2.39,0-3.58,1.25-3.58,3.73Zm2.81-3.26a1,1,0,0,1-.3-.72.9.9,0,0,1,.3-.7,1.17,1.17,0,0,1,.8-.28,1.07,1.07,0,0,1,.76.28.9.9,0,0,1,.3.7,1,1,0,0,1-.3.72,1,1,0,0,1-.76.29,1.09,1.09,0,0,1-.8-.29Z" transform="translate(0 -141.62)"/><path class="cls-3" d="M747.45,387.14a1.1,1.1,0,0,1,.49-.92l2.52-2.86a1.06,1.06,0,0,1,.71-.34,1.2,1.2,0,0,1,.69.21.65.65,0,0,1,.32.58v17.63a.67.67,0,0,1-.34.58,1.67,1.67,0,0,1-1.62,0,.64.64,0,0,1-.34-.58V386.33l-1,1.44a.76.76,0,0,1-1.18,0A1,1,0,0,1,747.45,387.14Z" transform="translate(0 -141.62)"/><path class="cls-3" d="M760.81,396.67v-7.9a5.41,5.41,0,0,1,1.6-4.34,6.31,6.31,0,0,1,4.28-1.38,6.44,6.44,0,0,1,4.29,1.38,5.41,5.41,0,0,1,1.61,4.34v7.9A5.4,5.4,0,0,1,771,401a7.34,7.34,0,0,1-8.57,0A5.44,5.44,0,0,1,760.81,396.67Zm2.29,0q0,3.72,3.59,3.72a3.62,3.62,0,0,0,2.66-.93,3.75,3.75,0,0,0,.94-2.79v-7.9a3.78,3.78,0,0,0-.94-2.8,3.66,3.66,0,0,0-2.66-.93c-2.39,0-3.59,1.25-3.59,3.73Zm2.82-3.26a1,1,0,0,1-.3-.72.9.9,0,0,1,.3-.7,1.14,1.14,0,0,1,.79-.28,1.1,1.1,0,0,1,.77.28.9.9,0,0,1,.3.7,1,1,0,0,1-.3.72,1,1,0,0,1-.77.29,1.05,1.05,0,0,1-.79-.29Z" transform="translate(0 -141.62)"/><path class="cls-3" d="M779.66,387.14a1.11,1.11,0,0,1,.5-.92l2.51-2.86a1.06,1.06,0,0,1,.71-.34,1.25,1.25,0,0,1,.7.21.65.65,0,0,1,.31.58v17.63a.64.64,0,0,1-.34.58,1.47,1.47,0,0,1-.81.21,1.41,1.41,0,0,1-.8-.21.64.64,0,0,1-.34-.58V386.33l-1,1.44a.8.8,0,0,1-.57.29.74.74,0,0,1-.6-.27A.93.93,0,0,1,779.66,387.14Z" transform="translate(0 -141.62)"/><path class="cls-3" d="M688.37,424.45v-7.9a5.45,5.45,0,0,1,1.6-4.34,6.31,6.31,0,0,1,4.27-1.38,6.38,6.38,0,0,1,4.3,1.38,5.43,5.43,0,0,1,1.61,4.34v7.9a5.4,5.4,0,0,1-1.61,4.34,6.38,6.38,0,0,1-4.3,1.38,6.31,6.31,0,0,1-4.27-1.38A5.41,5.41,0,0,1,688.37,424.45Zm2.29,0c0,2.49,1.2,3.73,3.58,3.73a3.64,3.64,0,0,0,2.67-.93,3.78,3.78,0,0,0,.94-2.8v-7.9a3.75,3.75,0,0,0-.94-2.79,3.68,3.68,0,0,0-2.67-.93c-2.38,0-3.58,1.24-3.58,3.72Zm2.82-3.25a1,1,0,0,1-.3-.72.91.91,0,0,1,.3-.71,1.14,1.14,0,0,1,.79-.28,1.1,1.1,0,0,1,.77.28.91.91,0,0,1,.3.71,1,1,0,0,1-.3.72,1.06,1.06,0,0,1-.77.29A1.09,1.09,0,0,1,693.48,421.2Z" transform="translate(0 -141.62)"/><path class="cls-3" d="M705.2,414.93a1.1,1.1,0,0,1,.5-.92l2.51-2.86a1,1,0,0,1,.71-.34,1.25,1.25,0,0,1,.7.21.67.67,0,0,1,.32.57v17.64a.65.65,0,0,1-.35.57,1.41,1.41,0,0,1-.8.21,1.45,1.45,0,0,1-.81-.21.64.64,0,0,1-.34-.57V414.11l-1,1.45a.82.82,0,0,1-.58.28.8.8,0,0,1-.6-.27A1,1,0,0,1,705.2,414.93Z" transform="translate(0 -141.62)"/><path class="cls-3" d="M716.55,424.45v-7.9a5.45,5.45,0,0,1,1.6-4.34,6.31,6.31,0,0,1,4.28-1.38,6.44,6.44,0,0,1,4.29,1.38,5.43,5.43,0,0,1,1.61,4.34v7.9a5.4,5.4,0,0,1-1.61,4.34,7.34,7.34,0,0,1-8.57,0A5.41,5.41,0,0,1,716.55,424.45Zm2.29,0c0,2.49,1.2,3.74,3.59,3.73a3.62,3.62,0,0,0,2.66-.93,3.78,3.78,0,0,0,.94-2.8v-7.9a3.75,3.75,0,0,0-.94-2.79,3.66,3.66,0,0,0-2.66-.93c-2.39,0-3.58,1.24-3.59,3.72Zm2.82-3.25a1,1,0,0,1-.3-.72.91.91,0,0,1,.3-.71,1.14,1.14,0,0,1,.79-.28,1.1,1.1,0,0,1,.77.28.91.91,0,0,1,.3.71,1,1,0,0,1-.3.72,1.06,1.06,0,0,1-.77.29A1.09,1.09,0,0,1,721.66,421.2Z" transform="translate(0 -141.62)"/><path class="cls-3" d="M733.39,414.93a1.09,1.09,0,0,1,.49-.92l2.51-2.86a1,1,0,0,1,.71-.34,1.25,1.25,0,0,1,.7.21.67.67,0,0,1,.32.57v17.64a.65.65,0,0,1-.35.57,1.41,1.41,0,0,1-.8.21,1.45,1.45,0,0,1-.81-.21.64.64,0,0,1-.34-.57V414.11l-1,1.45a.82.82,0,0,1-.58.28.8.8,0,0,1-.6-.27A1,1,0,0,1,733.39,414.93Z" transform="translate(0 -141.62)"/><path class="cls-3" d="M744.73,424.45v-7.9a5.45,5.45,0,0,1,1.6-4.34,6.31,6.31,0,0,1,4.28-1.38,6.46,6.46,0,0,1,4.29,1.38,5.43,5.43,0,0,1,1.61,4.34v7.9a5.4,5.4,0,0,1-1.61,4.34,7.34,7.34,0,0,1-8.57,0A5.41,5.41,0,0,1,744.73,424.45Zm2.3,0c0,2.49,1.19,3.74,3.58,3.73a3.62,3.62,0,0,0,2.66-.93,3.8,3.8,0,0,0,1-2.8v-7.9a3.77,3.77,0,0,0-1-2.79,3.66,3.66,0,0,0-2.66-.93q-3.58,0-3.58,3.72Zm2.81-3.25a1,1,0,0,1-.3-.72.91.91,0,0,1,.3-.71,1.14,1.14,0,0,1,.79-.28,1.1,1.1,0,0,1,.77.28.91.91,0,0,1,.3.71,1,1,0,0,1-.3.72,1.06,1.06,0,0,1-.77.29,1.11,1.11,0,0,1-.79-.29Z" transform="translate(0 -141.62)"/><path class="cls-3" d="M761.57,414.93a1.09,1.09,0,0,1,.49-.92l2.51-2.86a1,1,0,0,1,.72-.34,1.2,1.2,0,0,1,.69.21.67.67,0,0,1,.32.57v17.64a.64.64,0,0,1-.34.57,1.67,1.67,0,0,1-1.62,0,.64.64,0,0,1-.34-.57V414.11l-1,1.45a.77.77,0,0,1-.58.28.8.8,0,0,1-.6-.27A1,1,0,0,1,761.57,414.93Z" transform="translate(0 -141.62)"/><path class="cls-3" d="M772.91,424.45v-7.9a5.45,5.45,0,0,1,1.6-4.34,7.34,7.34,0,0,1,8.57,0,5.41,5.41,0,0,1,1.61,4.34v7.9a5.37,5.37,0,0,1-1.61,4.34,7.34,7.34,0,0,1-8.57,0A5.41,5.41,0,0,1,772.91,424.45Zm2.3,0c0,2.49,1.19,3.74,3.58,3.73a3.6,3.6,0,0,0,2.66-.93,3.78,3.78,0,0,0,.95-2.8v-7.9a3.76,3.76,0,0,0-.95-2.79,3.6,3.6,0,0,0-2.66-.93c-2.39,0-3.59,1.24-3.58,3.72ZM778,421.2a1,1,0,0,1-.3-.72.91.91,0,0,1,.3-.71,1.23,1.23,0,0,1,1.56,0,.91.91,0,0,1,.3.71,1,1,0,0,1-.3.72,1.08,1.08,0,0,1-.76.29,1.12,1.12,0,0,1-.82-.29Z" transform="translate(0 -141.62)"/><path class="cls-3" d="M1185.9,223.51H1067.48a6.09,6.09,0,0,0-6.09,6.09v79.28a6.09,6.09,0,0,0,6.09,6.09h43.41v9.51h-8.08a2.41,2.41,0,0,0-2.41,2.4v3.3a2.41,2.41,0,0,0,2.41,2.41h47.76a2.41,2.41,0,0,0,2.41-2.41h0v-3.3a2.41,2.41,0,0,0-2.41-2.4h-8.08V315h43.41a6.09,6.09,0,0,0,6.09-6.09V229.62a6.09,6.09,0,0,0-6.07-6.11Zm2.74,82.45a6.09,6.09,0,0,1-6.09,6.09H1070.83a6.09,6.09,0,0,1-6.09-6.09V232.52a6.09,6.09,0,0,1,6.09-6.09h111.72a6.09,6.09,0,0,1,6.09,6.09Z" transform="translate(0 -141.62)"/><path class="cls-3" d="M1036.59,223.51H918.16a6.09,6.09,0,0,0-6.09,6.09v79.3a6.09,6.09,0,0,0,6.09,6.09h43.42v9.51H953.5a2.41,2.41,0,0,0-2.41,2.4v3.3a2.4,2.4,0,0,0,2.4,2.42h47.77a2.41,2.41,0,0,0,2.41-2.41v-3.3a2.41,2.41,0,0,0-2.41-2.4h-8.08V315h43.41a6.09,6.09,0,0,0,6.09-6.09V229.62a6.09,6.09,0,0,0-6.07-6.11Zm2.74,82.45a6.09,6.09,0,0,1-6.09,6.09H921.52a6.09,6.09,0,0,1-6.09-6.09h0V232.52a6.09,6.09,0,0,1,6.09-6.09h111.72a6.09,6.09,0,0,1,6.09,6.09Z" transform="translate(0 -141.62)"/><path class="cls-3" d="M1036.59,356.82H918.16a6.09,6.09,0,0,0-6.09,6.09h0v79.27a6.09,6.09,0,0,0,6.09,6.09h43.42v9.51H953.5a2.41,2.41,0,0,0-2.41,2.41v3.29a2.41,2.41,0,0,0,2.41,2.41h47.76a2.41,2.41,0,0,0,2.41-2.41v-3.29a2.41,2.41,0,0,0-2.41-2.41h-8.08v-9.51h43.41a6.08,6.08,0,0,0,6.09-6.07V362.91A6.09,6.09,0,0,0,1036.59,356.82Zm2.74,82.44a6.09,6.09,0,0,1-6.09,6.09H921.52a6.09,6.09,0,0,1-6.09-6.09h0V365.83a6.09,6.09,0,0,1,6.09-6.09h111.72a6.09,6.09,0,0,1,6.09,6.09Z" transform="translate(0 -141.62)"/><path class="cls-3" d="M1185.68,357h-118a6.07,6.07,0,0,0-6.07,6.07v79a6.06,6.06,0,0,0,6.06,6.06H1111v9.47h-8a2.4,2.4,0,0,0-2.4,2.38v3.3a2.39,2.39,0,0,0,2.4,2.4h47.58a2.39,2.39,0,0,0,2.4-2.4h0V460a2.39,2.39,0,0,0-2.38-2.4h-8v-9.48h43.25a6.06,6.06,0,0,0,6.07-6.05h0v-79a6.07,6.07,0,0,0-6.08-6.06Zm2.73,82.14a6.07,6.07,0,0,1-6.07,6.07H1071a6.07,6.07,0,0,1-6.07-6.07V366a6.07,6.07,0,0,1,6.07-6.07h111.3a6.07,6.07,0,0,1,6.07,6.07Z" transform="translate(0 -141.62)"/><g class="cls-6"><path class="cls-2" d="M1009.61,435.54H945.47V371.41h64.14ZM948.2,403a28.88,28.88,0,1,0,28.93-28.83h-.93A28.79,28.79,0,0,0,948.2,403Z" transform="translate(0 -141.62)"/><path class="cls-3" d="M948.2,403a28.71,28.71,0,1,1,0,1.05C948.2,403.71,948.2,403.36,948.2,403Zm35.85-21.32-.91-.32.75-2.58-1.45-.37-1.09,5.28-.87-.18,1-5.28L980,378l-.27,2.68-.9-.13.16-2.65-1.5-.09v5.36h-1v-5.37l-1.48.12.21,2.66-.9.07-.31-2.58c-1.46,0-1.46,0-1.22,1.33s.5,2.71.76,4.09l-.87.17-1.09-5.28-1.44.39.75,2.59-.92.28-.83-2.59-1.37.51,2.06,5-.88.32-2.1-5-1.33.66,1.21,2.35-.81.46L964.69,381l-1.26.78,3,4.5-.78.51-3-4.47-1.19.9,1.68,2.1-.72.57-1.73-2.09L959.55,385l3.77,3.73-.64.7-3.8-3.8-1,1.08,2.08,1.71-.6.7-2.12-1.68-.85,1.21,4.47,3-.54.81-4.52-3-.73,1.35,2.34,1.27-.46.85-2.39-1.26L954,393l5,2.1-.39.86-5-2.05-.48,1.38,2.55.82-.29.91-2.6-.75-.32,1.46,5.25,1.08-.19.87-5.26-1-.21,1.49,2.65.27-.12.89-2.63-.17v1.51h5.24v1h-5.33l.1,1.46,2.64-.25.1.91-2.67.34.24,1.48,5.27-1,.14.88-5.23,1.07.35,1.45,2.6-.69.25.87-2.53.82.49,1.36,5-2.05.34.89-5,2.08.64,1.34,2.43-1.27.38.88L955,415.4l.77,1.27,4.51-3,.51.78-4.46,3,.88,1.2,2.11-1.68.57.71-2.07,1.72,1.18,1.22a22.93,22.93,0,0,0,1.75-2.06c4.12-6.14,8.2-12.31,12.32-18.45a3.78,3.78,0,0,1,1-1.06c6.17-4.13,12.35-8.23,18.51-12.37a22.39,22.39,0,0,0,2-1.77l-1.16-1L991.71,386l-.69-.66,1.66-2.09-1.17-.85-3,4.51-.79-.57,3-4.49-1.33-.75-1.29,2.36-.78-.49,1.2-2.36-1.35-.6-2.09,5-.86-.4,2-5-1.39-.5Zm12.54,24.8,5.31,1.05.22-1.48-2.69-.29.15-.89,2.62.18v-1.52H997v-1h5.25v-1.47l-2.64.26-.11-.92,2.68-.33-.26-1.48-5.27,1-.15-.87,5.25-1.09-.35-1.45-2.6.75-.27-.92,2.55-.81-.47-1.39-5,2.06-.35-.87,5-2.1-.63-1.34-2.37,1.27-.46-.87,2.35-1.27-.77-1.27-4.51,3-.51-.78,4.47-3-.9-1.18-2.1,1.67-.56-.72,2.06-1.72-1.09-1.14a24.55,24.55,0,0,0-1.75,2.07c-4.14,6.16-8.24,12.35-12.37,18.52a3.5,3.5,0,0,1-.94.94L962,419.23a27.53,27.53,0,0,0-2.43,2l1.21,1.1,1.71-2.09.69.61L961.5,423l1.21.86,3-4.48.79.57-3,4.49,1.34.75,1.16-2.42.86.49-1.27,2.35,1.35.62,2.09-5,.87.36-2.06,5,1.39.49.84-2.61.89.35-.74,2.57,1.44.36,1.1-5.3.86.23-1,5.27,1.5.18.26-2.68.91.13-.18,2.65,1.55.09v-5.41l.94.07v5.37l1.45-.14-.21-2.65.9-.08.31,2.64,1.5-.19-1-5.28.93-.16,1,5.26,1.43-.41-.74-2.57.92-.26.83,2.58,1.37-.52-2.06-5,.89-.34,2.09,5,1.32-.64-1.24-2.36.8-.46,1.33,2.35,1.27-.76-3-4.51.78-.52,3,4.48,1.17-.92L991,420.76l.74-.55,1.73,2.09,1.11-1.13-3.78-3.75.67-.71,3.77,3.84,1-1.1-2.07-1.72.58-.69,2.1,1.66.87-1.2-4.47-3,.55-.81,4.5,3,.77-1.33-2.37-1.28.44-.8,2.4,1.21.64-1.34-5-2.1.37-.87,5,2.06.46-1.39-2.54-.82.28-.92,2.6.76.35-1.45-5.26-1.08Z" transform="translate(0 -141.62)"/></g><path class="cls-3" d="M1126,370.62h2.65l.27.05c.57.05,1.15.08,1.72.15a30.55,30.55,0,0,1,8.29,2.17,27.63,27.63,0,0,1,14.54,13.81,32,32,0,0,1,3.07,14v7.82h-41c0,.46,0,.9.08,1.34a10.76,10.76,0,0,0,2.13,5.58,13.18,13.18,0,0,0,4.9,3.95,22.53,22.53,0,0,0,9.74,2.25,27.92,27.92,0,0,0,8.13-1.08,45.4,45.4,0,0,0,8-3.23l1.94-1v13.39a.27.27,0,0,1-.19.3,48,48,0,0,1-5.14,2.13,45.8,45.8,0,0,1-6.81,1.79,42,42,0,0,1-4.87.56,36.72,36.72,0,0,1-5.55,0,28,28,0,0,1-6.28-1.29,25.87,25.87,0,0,1-11.62-7.69,23.52,23.52,0,0,1-5.79-13.69,26.13,26.13,0,0,1,.28-6.84,24.07,24.07,0,0,1,3.16-8.55,24.83,24.83,0,0,1,11.94-10.08l.23-.07c-2.77,2.86-3.93,6.37-4.5,10.16h22.79V395a18.91,18.91,0,0,0-.75-4.78,9.31,9.31,0,0,0-5.66-6.32,16.91,16.91,0,0,0-5.8-1.06,27.52,27.52,0,0,0-7.29.77,35.76,35.76,0,0,0-21.54,15.33l-.15.17c.13-.82.23-1.57.37-2.32a35.11,35.11,0,0,1,3.61-10.57,29.86,29.86,0,0,1,7.85-9.42,28.41,28.41,0,0,1,16.17-6.14A10.11,10.11,0,0,1,1126,370.62Z" transform="translate(0 -141.62)"/><path class="cls-2" d="M1126,370.62c-.37,0-.75.08-1.12.1a28.41,28.41,0,0,0-16.17,6.14,29.86,29.86,0,0,0-7.85,9.42,35.11,35.11,0,0,0-3.61,10.57c-.14.75-.24,1.5-.37,2.32l.15-.17a35.75,35.75,0,0,1,21.58-15.38,27.52,27.52,0,0,1,7.29-.77,16.91,16.91,0,0,1,5.8,1.06,9.31,9.31,0,0,1,5.66,6.32,18.91,18.91,0,0,1,.75,4.78v1.55h-22.79c.57-3.79,1.73-7.3,4.5-10.16l-.23.07a24.83,24.83,0,0,0-11.94,10.08,24.07,24.07,0,0,0-3.16,8.55,26.13,26.13,0,0,0-.28,6.84,23.47,23.47,0,0,0,5.79,13.68,25.89,25.89,0,0,0,11.68,7.65,27.93,27.93,0,0,0,6.32,1.35,36.72,36.72,0,0,0,5.55,0,42,42,0,0,0,4.87-.56,45.8,45.8,0,0,0,6.81-1.79,48,48,0,0,0,5.14-2.13.27.27,0,0,0,.19-.3V416.45l-1.94,1a45.4,45.4,0,0,1-8,3.23,27.92,27.92,0,0,1-8.13,1.08,22.53,22.53,0,0,1-9.74-2.25,13.18,13.18,0,0,1-4.9-3.95,10.76,10.76,0,0,1-2.13-5.58c0-.44,0-.88-.08-1.34h41v-7.86a32,32,0,0,0-3.07-14A27.64,27.64,0,0,0,1139,372.94a30.55,30.55,0,0,0-8.29-2.17c-.57-.07-1.15-.1-1.72-.15l-.27-.05h28.15v64.17h-60.15V370.62Z" transform="translate(0 -141.62)"/><path class="cls-2" d="M1095.51,266.8V238.58c0-.44.09-.53.53-.53h28.09c.07.33-.19.36-.4.43a7,7,0,0,1-1.44.22,29.9,29.9,0,0,0-8.13,2.37,29,29,0,0,0-4.89,2.74c-.91.64-1,.77-.6,1.83,1.52,4.64,3.15,9.25,4.67,13.9l.08.23c.22.57.39.6.77.1a15.84,15.84,0,0,1,11.06-6.24,36.7,36.7,0,0,1,3.78-.1h23.28c.29,0,.68.14.84-.19s-.15-.57-.31-.81a30.88,30.88,0,0,0-11.38-10.48,30.29,30.29,0,0,0-11-3.46,4.91,4.91,0,0,1-.84-.14c-.28,0-.41-.1-.35-.39h28.49c.42,0,.5.08.5.5v61.75c0,.42-.08.5-.5.5H1096c-.42,0-.5-.08-.5-.5V271.94c.37-.05.38.23.42.46.2,1.18.34,2.38.59,3.55a31.1,31.1,0,0,0,13.23,19.3c.79.52,1,.51,1.66-.09q5.7-4.89,11.43-9.74c.17-.14.42-.27.34-.53s-.32-.22-.51-.28a15.55,15.55,0,0,1-7.14-4.17,15.07,15.07,0,0,1-3.69-6.05c-1.38-4.41-2.93-8.77-4.4-13.15-1.26-3.73-2.46-7.47-3.79-11.17-.08-.22-.09-.53-.37-.59s-.45.23-.61.43a31.24,31.24,0,0,0-6.58,15.17,11.79,11.79,0,0,1-.17,1.33C1095.86,266.62,1095.84,266.86,1095.51,266.8Z" transform="translate(0 -141.62)"/><path class="cls-3" d="M1095.51,266.8a12.19,12.19,0,0,0,.37-2.32,31.32,31.32,0,0,1,7.35-15.71l.24-.21c.28.82.56,1.6.82,2.39,2.44,7.22,4.92,14.43,7.3,21.67a19.67,19.67,0,0,0,2.87,6.09,15.39,15.39,0,0,0,9.18,5.82.45.45,0,0,1,.4.14c.11.14-.12.2-.2.27l-12.73,10.87a.68.68,0,0,1-1,.09l0,0a31.31,31.31,0,0,1-12.87-16.18,30,30,0,0,1-1.6-7.32.49.49,0,0,0-.14-.43Z" transform="translate(0 -141.62)"/><path class="cls-3" d="M1129.26,238.06a11.91,11.91,0,0,0,2.37.36,31.18,31.18,0,0,1,22.14,15c.06.1.17.19.13.34s-.39.07-.58.07h-26.41a15.13,15.13,0,0,0-12.66,6.46l-.57.79c-.26-.09-.24-.33-.3-.5L1108.1,245a.71.71,0,0,1,.26-1l.06,0a31.86,31.86,0,0,1,13.22-5.55c.72-.13,1.45-.19,2.17-.28.12,0,.26,0,.31-.14Z" transform="translate(0 -141.62)"/><path class="cls-3" d="M1138.75,259.39h17c.53,0,.77.13.93.67a31.29,31.29,0,0,1-40.33,38.83l-.22-.13,3.06-2.63q8.21-7,16.42-14a21.07,21.07,0,0,0,3.75-3.74,15.54,15.54,0,0,0-.46-18.69A1.92,1.92,0,0,1,1138.75,259.39Z" transform="translate(0 -141.62)"/><path class="cls-2" d="M1126.82,259.67a9.67,9.67,0,1,1-.06,0Z" transform="translate(0 -141.62)"/><g id="_750fqw.tif" data-name=" 750fqw.tif"><path class="cls-3" d="M980.64,295h-5.29c-.51-.09-1-.19-1.52-.27a29.13,29.13,0,0,1-18.4-10.75,24.5,24.5,0,0,1-5.77-18.53c.13-1.31.42-2.6.63-3.94l-1.4.75v-.59a22,22,0,0,1,3.28-7.45,1.84,1.84,0,0,0,.15-1.13,14.64,14.64,0,0,1,1.61-8.14,17.88,17.88,0,0,1,1.34-2,11,11,0,0,0,2.37,5.36,11,11,0,0,1,.8-1,26.92,26.92,0,0,1,32.39-4.9,14.28,14.28,0,0,0,2.43,1c4.29,1.36,7.62,3.8,9.18,8.21h.23l-.48-3.76c3.22,3.86,3.92,8.53,4.52,13.49l.72-1.75c.07.36.09.46.1.55a32.73,32.73,0,0,1-5.31,20.94c-4,6.15-9.09,10.83-16.34,12.77C984.16,294.31,982.39,294.62,980.64,295Zm10.68-49.15c-1.37-2.1-3.57-2.62-5.55-3.55l2.2.11a9.59,9.59,0,0,0-.9-.47,25.73,25.73,0,0,0-14-1.34c-6.6,1.13-11.71,4.75-16,9.71l.9-.48a10.25,10.25,0,0,1,5.87-1.18,3.6,3.6,0,0,0,3.15-.91A11.52,11.52,0,0,1,973.3,245l-1,.93a9.09,9.09,0,0,0-3.23,5.22c0,.28,0,.73.16.87,1.77,1.44,3.35,3.29,6,2.95.34,0,1,.22,1,.36a2.84,2.84,0,0,1-.32,1.54c-.21.36-.71.54-1.08.81l-3.44,2.58a7.56,7.56,0,0,1,1,4.67c-1.3-.21-2.52-.43-3.74-.58-.52-.06-1.18-.49-1.49.38-.21.58-.48,1.14-.64,1.72,0,.16.12.42.26.58a19.86,19.86,0,0,0,1.59,1.73c2.2,2.1,4.71,3.61,8.36,1.47l.26-.13a5.06,5.06,0,0,1,6.48,1.19,1.45,1.45,0,0,1,.43,1.15,1.35,1.35,0,0,1-1.06.66,4.88,4.88,0,0,0-3.18,1.33,11,11,0,0,1-5.89,2.42c-1.11.12-2.24.12-3.57.18.68.56,1.19,1,1.72,1.42,3.26,2.47,6.86,3.77,11,3,3.08-.6,5.41-2.49,7.52-4.68.8-.83,1.53-1.74,2.48-2.84l-.25,3.72c3.26-3.94,3-8.57,2.71-13.21l.31-.09,1.66,3c.9-3.85.37-7.58-.48-11.51l2.33,1.4a8.4,8.4,0,0,0-2.87-6,22.85,22.85,0,0,0-7.33-4.41l-.79-.35.07-.23Z" transform="translate(0 -141.62)"/></g><path class="cls-7" d="M110.23,301.38" transform="translate(0 -141.62)"/><path class="cls-7" d="M101.35,419.8" transform="translate(0 -141.62)"/><path class="cls-7" d="M97.26,311.78" transform="translate(0 -141.62)"/><rect class="cls-4" x="95.08" y="161.64" width="118.52" height="120.44" rx="11.94"/><rect class="cls-4" x="103.5" y="153.21" width="118.52" height="120.44" rx="11.94"/><rect class="cls-4" x="111.93" y="144.79" width="118.52" height="120.44" rx="11.94"/><line class="cls-5" x1="125.08" y1="163.1" x2="188.96" y2="163.1"/><line class="cls-5" x1="126.61" y1="173.42" x2="190.49" y2="173.42"/><line class="cls-5" x1="139.25" y1="183.95" x2="203.13" y2="183.95"/><line class="cls-5" x1="153.99" y1="194.48" x2="217.87" y2="194.48"/><line class="cls-5" x1="153.99" y1="205.01" x2="217.87" y2="205.01"/><line class="cls-5" x1="139.25" y1="215.54" x2="203.13" y2="215.54"/><line class="cls-5" x1="139.25" y1="226.07" x2="203.13" y2="226.07"/><line class="cls-5" x1="128.72" y1="236.6" x2="192.6" y2="236.6"/><line class="cls-5" x1="139.25" y1="247.13" x2="203.13" y2="247.13"/><polygon points="292.18 183.95 332.72 207.35 292.18 230.76 292.18 183.95"/><polygon points="567.92 185.21 608.46 208.62 567.92 232.02 567.92 185.21"/><polygon points="837.36 179.92 877.9 203.32 837.36 226.73 837.36 179.92"/><line class="cls-5" x1="703.13" y1="177.74" x2="767.01" y2="177.74"/><path class="cls-8" d="M402.08,337.88a6.21,6.21,0,0,0-3,.83h0l-8.65,5h0a5.93,5.93,0,0,0-2.79,6.75l2,6.52a28.84,28.84,0,0,0-2.6,4.51L380.42,363a5.92,5.92,0,0,0-4.46,5.78v10a5.89,5.89,0,0,0,4.46,5.76L387,386a29.13,29.13,0,0,0,2.6,4.54l-2,6.49a5.93,5.93,0,0,0,2.79,6.75l8.65,5a5.93,5.93,0,0,0,7.25-1l4.61-5c.86.08,1.7.18,2.59.18s1.73-.1,2.58-.18l4.61,5a5.93,5.93,0,0,0,7.25,1l8.65-5a5.93,5.93,0,0,0,2.79-6.75l-2-6.49A29.13,29.13,0,0,0,440,386l6.62-1.46a5.89,5.89,0,0,0,4.46-5.76v-10a5.92,5.92,0,0,0-4.46-5.78L440,361.5a28.84,28.84,0,0,0-2.6-4.51l2-6.52a5.93,5.93,0,0,0-2.79-6.75h0l-8.65-5h0a5.94,5.94,0,0,0-7.25,1l-4.59,5a18.19,18.19,0,0,0-5.21,0l-4.59-5A5.65,5.65,0,0,0,402.08,337.88Z" transform="translate(0 -141.62)"/><circle class="cls-8" cx="413.55" cy="232.88" r="11.68"/><path class="cls-8" d="M451.1,305.86a6.2,6.2,0,0,0-2,2.34h0l-4.46,9h0a6,6,0,0,0,1.4,7.17l5.29,4.31a29.18,29.18,0,0,0,.31,5.2l-4.72,4.87a5.92,5.92,0,0,0-.52,7.28l5.52,8.35a5.89,5.89,0,0,0,6.89,2.35l6.33-2.43a28.91,28.91,0,0,0,4.66,2.32l1.88,6.54a5.9,5.9,0,0,0,6.05,4.09l10-.59a5.94,5.94,0,0,0,5.51-4.81l1.08-6.74c.75-.4,1.51-.78,2.25-1.27a19.84,19.84,0,0,0,2.05-1.57l6.62,1.65a5.94,5.94,0,0,0,6.58-3.19l4.46-9a5.92,5.92,0,0,0-1.4-7.17l-5.27-4.29a30.39,30.39,0,0,0-.33-5.22l4.72-4.87a5.92,5.92,0,0,0,.54-7.27L509,304.62a6,6,0,0,0-6.91-2.37l-6.33,2.37a29.81,29.81,0,0,0-4.66-2.33l-1.9-6.55a5.94,5.94,0,0,0-6.05-4.1h0l-10,.6h0a5.94,5.94,0,0,0-5.49,4.82l-1.06,6.73c-.76.4-1.52.79-2.27,1.28s-1.4,1.05-2.08,1.59l-6.6-1.66A5.65,5.65,0,0,0,451.1,305.86Z" transform="translate(0 -141.62)"/><circle class="cls-8" cx="480.86" cy="188.46" r="11.68"/></svg>